<?xml version="1.0" encoding="utf-8" ?>
<svg xmlns="http://www.w3.org/2000/svg" xmlns:xlink="http://www.w3.org/1999/xlink" width="512" height="512">
	<path transform="scale(0.5 0.5)" d="M229.631 122.266C260.543 121.165 291.744 122.272 322.677 122.296C333.264 122.304 343.851 122.211 354.439 122.171C360.326 122.149 366.682 121.669 372.5 122.546C376.748 123.186 381.679 125.915 385.113 128.406C392.396 133.689 398.45 141.443 399.824 150.574L400.469 153.5C401.793 158.826 401.12 165.471 401.138 170.966C401.165 179.573 402.042 189.433 400.353 197.875C399.437 202.453 397.692 206.526 395.284 210.5C390.4 218.561 381.294 224.571 372.178 226.728L371.72 226.832C370.808 235.664 370.922 246.367 372.009 255.159C382.628 247.703 392.532 238.81 402.467 230.463C416.115 218.996 429.912 207.575 443.322 195.838C450.985 189.132 458.688 182.539 466.5 176.011C473.654 170.033 479.903 163.808 488.505 159.879C501.946 153.741 517.114 152.803 531.013 158.039C537.117 160.338 543.141 163.62 548.25 167.673C551.173 169.992 553.847 172.724 556.69 175.159C565.653 182.833 574.541 190.646 583.554 198.25C630.018 237.447 676.138 277.07 722.161 316.768C728.418 322.166 734.949 327.244 741.217 332.632C762.28 350.738 783.121 369.124 804.25 387.147C810.773 392.712 817.497 398.03 823.984 403.654C828.102 407.225 831.941 411.082 836.089 414.628C843.119 420.639 850.511 426.349 857.255 432.681C861.955 437.094 867.333 442.543 869.973 448.522C872.382 453.978 874.492 459.542 875.64 465.418C878.814 481.668 874.631 496.874 865.451 510.312C857.572 521.845 845.502 528.361 832.029 530.831C814.427 534.057 798.897 528.092 784.702 518.292C783.268 524.84 783.991 532.441 783.976 539.152C783.951 550.894 783.932 562.636 783.921 574.378C783.87 627.988 783.631 681.604 783.754 735.212C783.798 753.863 784.037 772.517 783.7 791.166C783.564 798.707 784.069 807.195 782.521 814.593C781.597 820.225 780.793 825.509 779.074 831C774.176 846.644 764.596 862.01 753.064 873.644C738.109 888.731 718.264 897.795 697.499 901.399C685.429 903.494 672.318 902.48 660.081 902.48C640.065 902.479 620.05 902.494 600.034 902.525C538.107 902.621 476.175 902.688 414.25 902.745C394.421 902.763 374.597 902.359 354.758 902.462C344.949 902.513 335.205 902.57 325.449 901.311C302.546 898.357 282.226 888.412 265.841 872.154C249.194 855.636 239.244 835.911 234.797 812.989C233.109 804.292 233.983 794.023 233.966 785.119C233.933 768.163 233.972 751.206 233.871 734.25C233.451 663.697 233.259 593.121 233.047 522.572L221.857 528.06C209.45 532.763 191.636 532.544 179.512 526.984C166.411 520.978 155.024 507.932 150.134 494.402L149.843 493.579C147.399 486.843 146.708 479.608 147.002 472.475C147.429 462.098 151.274 451.39 157.418 442.998C162.253 436.393 169.636 430.873 175.75 425.442C189.34 413.37 203.194 401.62 217.022 389.824C228.544 379.995 239.182 369.516 250.254 359.239L250.507 227.163C247.351 227.705 243.841 227.449 240.625 227.464C233.44 227.498 226.153 227.695 219.151 225.815L218.25 225.567L214.75 224.446C206.059 220.868 197.264 211.189 194.051 202.447L193.788 201.704L193.182 200.089C192.21 197.162 192.242 193.753 192.12 190.688C191.829 183.393 192.102 176.001 192.191 168.7C192.254 163.484 191.839 157.677 192.637 152.542C193.089 149.63 194.306 146.335 195.627 143.703C200.134 134.722 207.488 126.949 217.26 123.896L218.025 123.665C221.932 122.415 225.561 122.353 229.631 122.266ZM512.297 288.75C505.045 295.734 497.025 301.642 489.25 308.002C473.718 320.707 458.152 333.433 442.765 346.31C430.976 356.176 419.551 366.479 407.75 376.317C391.803 389.612 375.573 402.588 359.621 415.884C334.757 436.608 310.173 457.642 285.467 478.552C276.967 485.745 268.184 492.622 259.881 500.042C258.871 500.944 256.204 502.815 255.667 503.83C255.38 504.371 255.522 506.514 255.512 507.25C255.187 531.959 255.518 556.716 255.525 581.43C255.537 625.623 255.462 669.816 255.444 714.01C255.437 733.258 255.432 752.507 255.441 771.756C255.445 780.168 255.33 788.594 255.661 797C255.837 801.459 255.921 805.835 256.868 810.211C257.973 815.315 258.769 820.003 260.603 824.964C268.407 846.081 283.643 862.519 304.011 872.109C322.816 880.965 341.707 880.381 361.97 880.367C374.139 880.358 386.31 880.37 398.479 880.287C398.522 859.638 398.477 838.99 398.474 818.341C398.472 806.468 397.786 794.173 398.652 782.348C400.669 754.812 412.013 729.487 431.609 709.993C445.302 696.372 463.523 684.357 482.632 680.132C490.713 678.346 498.281 676.586 506.614 676.316L507.451 676.269C536.198 674.753 566.038 686.185 587.163 705.557C602.007 719.17 616.689 738.767 620.179 759.104L622.635 770.844C623.334 773.938 623.375 777.183 623.587 780.339C624.166 788.96 623.937 797.691 623.93 806.328C623.908 830.956 623.026 855.87 624.081 880.467C636.715 880.418 649.349 880.36 661.984 880.37C671.651 880.378 681.699 880.976 691.289 879.941C708.187 878.118 726.449 869.168 738.464 857.215C749.351 846.383 756.765 831.453 759.909 816.5C760.592 813.25 760.743 809.848 761.159 806.552C761.757 801.802 761.523 796.881 761.538 792.098C761.563 784.289 761.563 776.48 761.639 768.672C761.973 734.252 761.571 699.845 761.575 665.425C761.58 625.667 761.79 585.912 761.795 546.154C761.796 533.137 762.236 519.996 761.663 507C761.514 503.632 761.709 499.881 760.935 496.614C754.102 490.061 746.719 484.353 739.538 478.214C723.36 464.383 707.119 450.661 690.791 437.006C674.387 423.287 657.876 409.671 641.54 395.866C629.112 385.364 616.999 374.485 604.494 364.051C592.124 353.731 579.363 343.86 566.986 333.55C552.748 321.69 538.575 309.738 524.3 297.911C520.927 295.117 517.05 290.555 513.137 288.732L512.297 288.75ZM509.499 177.205C502.932 177.887 497.607 179.285 492.212 183.207C488.505 185.902 485.309 189.281 481.79 192.212C472.901 199.616 464.153 207.157 455.314 214.612C430.915 235.193 406.509 255.756 382.25 276.497C373.918 283.62 366.048 291.286 357.676 298.364C351.832 303.306 345.719 307.926 339.876 312.867C316.724 332.445 293.879 352.408 270.75 372.018C257.303 383.418 244.393 395.446 231.043 406.951C220.629 415.925 210.302 425.017 199.75 433.827C192.37 439.989 183.67 446.352 177.519 453.75C170.087 462.687 168.084 472.232 169.58 483.75C169.711 484.758 169.994 485.59 170.349 486.533L170.682 487.432C173.917 496.058 180.733 503.442 189.141 507.257C195.069 509.946 202.15 510.968 208.5 509.35C213.275 508.133 217.5 506.696 221.675 503.975C229.919 498.603 236.902 490.734 244.25 484.172C255.22 474.373 266.644 464.885 277.94 455.458C308.931 429.593 339.744 403.514 370.75 377.666C391.283 360.548 412.177 343.841 432.651 326.654C449.348 312.637 466.092 298.672 482.787 284.655C487.022 281.099 491.304 277.589 495.469 273.951C498.815 271.027 502.138 267.768 505.79 265.236C508.507 263.352 511.417 262.399 514.716 262.573L515.437 262.822C522.527 265.338 527.949 271.912 533.619 276.61C543.342 284.667 552.861 292.944 562.542 301.027C591.592 325.279 620.888 349.248 649.887 373.564C661.948 383.677 673.676 394.253 685.75 404.353C699.583 415.923 713.653 427.229 727.411 438.9C740.869 450.317 754.057 462.081 767.5 473.506C772.423 477.691 777.615 481.563 782.531 485.75C790.088 492.186 797.38 500.056 805.75 505.382C812.296 509.547 820.541 511.195 828.082 509.25C836.977 506.956 844.572 502.266 849.48 494.259C853.941 486.982 856.021 477.193 853.889 468.794L853.667 467.981L853.443 467.101C851.67 460.36 847.692 454.741 842.781 449.897C835.094 442.315 826.636 435.519 818.559 428.366C807.599 418.66 796.425 409.259 785.404 399.636C781.445 396.179 777.755 392.421 773.769 389.003C768.154 384.186 762.268 379.697 756.636 374.903C725.502 348.4 694.72 321.469 663.664 294.874C648.83 282.171 633.596 269.92 618.742 257.256C606.163 246.533 593.856 235.444 581.344 224.641C575.291 219.415 568.815 214.682 562.795 209.423C555.532 203.077 548.468 196.58 541.041 190.408C537.378 187.364 533.467 183.867 529.317 181.515C523.099 177.991 516.609 176.648 509.499 177.205ZM509.832 698.726C484.094 700.482 460.953 709.47 443.658 729.194C432.373 742.064 423.852 758.518 421.731 775.7C420.413 786.38 421.097 797.856 421.103 808.605C421.11 821.633 420.993 834.674 421.159 847.701C421.281 857.229 421.781 866.907 421.249 876.418C421.171 877.811 421.384 879.137 421.582 880.511L512.875 880.39L601.947 880.501C601.996 861.693 601.93 842.886 601.99 824.078C602.02 814.702 602.065 805.326 602.089 795.95C602.116 785.292 602.101 775.039 599.301 764.642C595.262 749.644 586.603 735.799 575.75 724.726C559.299 707.942 534.661 698.429 511.25 698.644L509.832 698.726ZM358.75 144.741C326.249 145.512 293.621 144.952 261.103 145.014C253.299 145.029 245.495 145.053 237.692 145.059C232.807 145.063 227.528 144.657 222.75 145.761L222.164 145.89C219.56 146.544 217.221 149.5 216.016 151.75C215.233 153.211 214.16 155.339 214.016 157C213.38 164.336 214.005 172.256 214.016 179.649C214.022 183.807 213.124 190.138 214.327 194.041L215.955 198.148C217.206 200.609 220.876 203.746 223.583 204.283C226.736 204.908 230.847 204.442 234.066 204.394L368.75 204.217L369.362 204.169C371.586 203.928 374.151 201.618 375.492 199.921C376.386 198.79 376.965 197.562 377.535 196.25L377.817 195.612C379.293 191.93 378.532 185.785 378.54 181.752C378.553 176.104 378.558 170.457 378.538 164.809C378.525 160.95 379.127 155.966 377.43 152.398C376.435 150.307 373.798 146.406 371.497 145.602L370.675 145.441L370.025 145.306C366.304 144.567 362.521 144.628 358.75 144.741ZM273.427 227.75C272.604 233.289 273.111 239.353 273.146 244.96C273.2 253.812 273.169 262.662 273.11 271.514C273.005 287.418 272.523 303.299 272.491 319.208C272.477 326.406 272.231 333.597 272.747 340.782L315.166 304.949L350.021 276.024L350.072 227.494L273.427 227.75Z"/>
	<path transform="scale(0.5 0.5)" d="M506.149 411.195C507.396 410.79 509.659 410.972 511.001 410.943C520.552 410.74 530.881 413.104 539.478 417.224C552.424 423.427 563.134 432.207 570.25 444.87C572.65 449.141 574.277 453.701 576.035 458.25C577.115 461.044 577.392 463.786 578.181 466.596C578.627 468.189 579.054 469.769 579.244 471.418C581.227 488.647 575.611 509.071 564.614 522.494C552.599 537.161 536.228 544.506 517.619 546.281C501.261 548.228 483.492 542.656 470.475 532.782C455.775 521.631 446.826 504.784 444.652 486.6C442.615 469.572 447.964 451.064 458.387 437.537C467.669 425.49 481.788 416.42 496.491 412.647C499.596 411.85 502.965 411.602 506.149 411.195ZM506.356 433.674C494.158 435.571 482.701 441.945 475.309 451.986C469.34 460.095 464.362 474.113 466.191 484.186C466.774 487.395 467.48 490.847 468.645 493.888C472.133 502.994 477.35 510.455 485.185 516.411C487.418 518.108 490.3 519.252 492.818 520.482C500.744 524.355 508.547 524.561 517.117 524.375C529.244 523.187 539.356 517.962 547.082 508.568C555.153 498.753 558.039 485.328 556.719 472.855C555.415 460.528 549.504 450.335 539.851 442.65C529.931 434.751 518.616 433.107 506.356 433.674Z"/>
</svg>
