<?xml version="1.0" encoding="utf-8" ?>
<svg xmlns="http://www.w3.org/2000/svg" xmlns:xlink="http://www.w3.org/1999/xlink" width="512" height="512">
	<path transform="scale(0.5 0.5)" d="M420.695 72.7773C480.406 70.0398 542.128 84.2691 595.251 111.443C608.158 118.045 620.428 125.685 632.488 133.708C691.48 172.954 737.052 229.972 763.99 295.326C767.211 303.14 770.489 310.959 773.131 318.99C777.905 333.504 781.409 348.871 784.382 363.858C788.568 384.962 790.026 406.354 790.035 427.838C790.039 438.047 790.029 448.33 789.254 458.516C785.879 502.9 773.778 547.625 754.024 587.5C749.413 596.808 744.998 606.296 739.207 614.939L914.743 791.021C932.531 808.309 947.875 829.671 948.101 855.536C948.316 880.026 939.689 903.397 922.38 920.91C906.433 937.045 885.204 946.602 862.366 946.644C843.18 946.68 824.557 940.757 808.99 929.43C802.989 925.063 797.778 919.673 792.501 914.481C782.751 904.889 773.454 894.9 763.867 885.158C747.041 868.059 729.82 851.302 712.75 834.444L616.37 738.739C606.005 744.084 596.053 750.153 585.516 755.176C545.061 774.462 501.423 785.901 456.687 788.696C448.425 789.212 440.037 789.061 431.757 789.022C400.176 788.872 368.763 785.299 338.276 776.856C285.159 762.147 235.273 734.271 193.96 697.885C187.107 691.85 180.735 685.268 174.365 678.732C115.421 618.245 79.0296 539.511 73.7632 454.946C72.2758 431.063 72.5931 406.037 75.7593 382.303C85.2528 311.14 116.733 245.098 164.412 191.669C218.423 131.143 293.693 90.6011 373.5 77.0783C389.049 74.4435 404.969 73.6613 420.695 72.7773ZM414.917 104.781C330.065 108.776 246.659 148.261 189.457 211.045C132.054 274.05 100.61 357.597 104.601 442.99C107.376 502.359 125.34 560.104 158.285 609.715C165.117 620.003 173.047 629.627 181.068 638.998C190.546 650.07 200.255 660.699 211.058 670.517C262.434 717.208 328.081 747.805 397.244 755.049C414.042 756.808 430.88 756.72 447.747 756.474C467.071 755.475 486.513 753.41 505.425 749.183C573.842 733.891 632.059 695.463 678.666 643.824C685.873 635.838 692.351 627.18 698.612 618.443C731.546 572.488 752.139 517.4 757.398 461.033C759.343 440.189 758.635 418.748 757.502 397.875C756.923 387.192 754.766 376.246 752.645 365.768C739.007 298.402 702.447 234.373 651.161 188.536C586.794 131.009 501.308 99.9834 414.917 104.781ZM785.085 708.25C775.345 716.836 766.24 725.957 756.887 734.95C747.298 744.17 737.588 753.202 728.131 762.57C723.335 767.322 718.599 772.093 713.962 777C711.892 779.19 709.259 781.419 707.573 783.881C732.619 808.856 757.756 833.75 782.58 858.947C791.322 867.82 800.06 876.696 808.814 885.557C814.261 891.07 819.6 896.97 825.589 901.889C830.432 905.867 835.787 908.806 841.626 911.024C856.838 915.655 873.417 915.402 887.654 907.761C894.494 904.09 900.344 898.728 904.943 892.5C913.637 880.725 917.891 867.035 915.758 852.376C914.333 842.592 910.111 833.745 904.211 825.88C897.547 816.997 887.611 809.947 879.811 801.921C849.039 770.257 817.427 739.316 785.996 708.299L785.085 708.25ZM719.662 642.75C712.753 652.373 705.025 661.315 697.158 670.157C688.425 679.972 679.17 690 669.198 698.581C663.912 703.13 658.535 707.643 652.989 711.871C649.57 714.477 645.831 716.798 642.576 719.583C653.695 730.991 664.99 742.24 676.256 753.503C678.214 755.46 680.181 757.41 682.149 759.358C682.513 759.719 683.347 760.788 683.75 760.941C684.048 761.054 684.386 760.987 684.704 761.01L685.512 760.25C701.995 744.657 718.1 728.544 734.25 712.602C743.675 703.298 752.739 693.436 763.177 685.249C752.39 674.253 741.528 663.337 730.613 652.469C728.173 650.039 723.196 643.771 720.062 642.669L719.662 642.75Z"/>
	<path transform="scale(0.5 0.5)" d="M417.65 192.295C465.562 188.884 515.057 201.636 555.773 227.034C568.61 235.042 581.037 244.788 592.539 254.601C601.888 262.577 610.145 271.753 617.878 281.284C648.041 318.458 666.373 363.922 669.993 411.693C672.116 439.711 669.553 468.523 661.528 495.486C655.9 514.396 647.332 532.46 637.381 549.416C629.776 562.373 621.493 574.638 611.648 586.017C576.457 626.693 527.933 656.012 475 665.983C464.992 667.868 454.769 668.698 444.624 669.452C412.607 670.731 379.928 666.56 349.75 655.47C319.845 644.48 291.476 626.47 267.987 605.036C260.647 598.339 254.12 590.889 247.766 583.271C214.656 543.578 194.492 493.852 192.212 442.045C189.361 377.265 212.254 316.691 255.987 268.938C262.532 261.791 269.665 255.461 277.044 249.206C282.313 244.739 287.529 240.094 293.161 236.09C301.754 229.982 311.013 224.722 320.34 219.829C350.664 203.924 383.292 193.837 417.65 192.295ZM415.638 224.304C361.998 228.471 309.838 254.481 274.791 295.452C264.175 307.862 254.454 321.329 246.8 335.776C228.837 369.679 221.11 409.361 224.151 447.5C227.241 486.26 242.964 526.293 266.837 557.007C275.766 568.494 286.377 579.089 297.439 588.523C336.978 622.245 391.364 641.338 443.448 637.255L447.122 636.912C502.708 632.696 552.314 606.554 588.401 564.25C624.58 521.838 643.375 468.112 638.543 412.33C633.833 357.955 605.994 307.072 564.301 272.142C524.216 238.56 468.74 219.704 416.415 224.232L415.638 224.304Z"/>
	<path transform="scale(0.5 0.5)" d="M515.255 355.665C517.256 355.623 519.433 355.675 521.361 356.227C525.152 357.312 528.444 359.732 530.248 363.294C532.149 367.048 533.046 371.965 531.534 376C529.926 380.295 527.065 384.143 524.275 387.739C518.181 395.592 511.402 402.902 504.999 410.5C493.929 423.636 483.037 436.959 472.035 450.158C458.18 466.78 444.398 483.478 430.649 500.188C427.038 504.577 423.806 509.299 420.135 513.614C418.605 515.411 416.907 517.122 414.716 518.084L414 518.378C412.726 518.917 411.569 519.347 410.174 519.47C406.277 519.814 402.25 519.324 398.75 517.482C396.325 516.206 394.207 513.848 392.216 511.973C388.831 508.788 385.447 505.609 382 502.491C371.568 493.054 360.984 483.662 350.219 474.609C344.481 469.847 333.004 462.07 331.895 454.451C331.234 449.909 332.331 444.984 335.219 441.38C337.791 438.17 341.608 435.725 345.777 435.348C348.384 435.113 351.251 435.443 353.59 436.681C356.569 438.258 359.365 440.865 362 442.969C367.523 447.379 372.85 451.965 378.17 456.617C387.262 464.568 396.452 472.411 405.636 480.254C413.954 471.585 421.198 461.877 428.953 452.708C446.323 432.169 463.612 411.518 480.616 390.673C486.637 383.291 492.893 376.113 498.927 368.752C501.548 365.555 503.926 361.475 506.959 358.736C509.384 356.546 512.155 356.149 515.255 355.665Z"/>
</svg>
