<?xml version="1.0" encoding="UTF-8" standalone="no"?>
<svg
   id="Filled"
   viewBox="0 0 24 24"
   width="512"
   height="512"
   version="1.1"
   sodipodi:docname="star_full.svg"
   inkscape:version="1.3.2 (091e20ef0f, 2023-11-25, custom)"
   xmlns:inkscape="http://www.inkscape.org/namespaces/inkscape"
   xmlns:sodipodi="http://sodipodi.sourceforge.net/DTD/sodipodi-0.dtd"
   xmlns="http://www.w3.org/2000/svg"
   xmlns:svg="http://www.w3.org/2000/svg">
  <defs
     id="defs1" />
  <sodipodi:namedview
     id="namedview1"
     pagecolor="#ffffff"
     bordercolor="#000000"
     borderopacity="0.25"
     inkscape:showpageshadow="2"
     inkscape:pageopacity="0.0"
     inkscape:pagecheckerboard="0"
     inkscape:deskcolor="#d1d1d1"
     inkscape:zoom="0.85644531"
     inkscape:cx="121.43216"
     inkscape:cy="343.86317"
     inkscape:window-width="1890"
     inkscape:window-height="1008"
     inkscape:window-x="0"
     inkscape:window-y="0"
     inkscape:window-maximized="1"
     inkscape:current-layer="Filled" />
  <path
     d="M1.327,12.4,4.887,15,3.535,19.187A3.178,3.178,0,0,0,4.719,22.8a3.177,3.177,0,0,0,3.8-.019L12,20.219l3.482,2.559a3.227,3.227,0,0,0,4.983-3.591L19.113,15l3.56-2.6a3.227,3.227,0,0,0-1.9-5.832H16.4L15.073,2.432a3.227,3.227,0,0,0-6.146,0L7.6,6.568H3.231a3.227,3.227,0,0,0-1.9,5.832Z"
     id="path1"
     style="fill:#ffcc00" />
</svg>
